<mxfile host="app.diagrams.net" modified="2021-09-18T18:10:11.027Z" agent="5.0 (X11; Linux x86_64) AppleWebKit/537.36 (KHTML, like Gecko) Chrome/94.0.4606.41 Safari/537.36 Edg/94.0.992.19" etag="yTwKuCw4Noy6fYD3H2CA" version="15.2.9" type="github">
  <diagram id="W_XMxv9y36g6PvLCYUjf" name="Page-1">
    <mxGraphModel dx="1422" dy="755" grid="1" gridSize="10" guides="1" tooltips="1" connect="1" arrows="1" fold="1" page="1" pageScale="1" pageWidth="827" pageHeight="1169" math="0" shadow="0">
      <root>
        <mxCell id="0" />
        <mxCell id="1" parent="0" />
        <mxCell id="Be2gnzdaN61zOpge0nfu-13" style="edgeStyle=orthogonalEdgeStyle;rounded=0;orthogonalLoop=1;jettySize=auto;html=1;" parent="1" source="Be2gnzdaN61zOpge0nfu-1" target="Be2gnzdaN61zOpge0nfu-6" edge="1">
          <mxGeometry relative="1" as="geometry" />
        </mxCell>
        <mxCell id="Be2gnzdaN61zOpge0nfu-1" value="Internet" style="ellipse;shape=cloud;whiteSpace=wrap;html=1;" parent="1" vertex="1">
          <mxGeometry x="60" y="40" width="120" height="80" as="geometry" />
        </mxCell>
        <mxCell id="Be2gnzdaN61zOpge0nfu-9" style="edgeStyle=orthogonalEdgeStyle;rounded=0;orthogonalLoop=1;jettySize=auto;html=1;" parent="1" source="Be2gnzdaN61zOpge0nfu-2" target="Be2gnzdaN61zOpge0nfu-3" edge="1">
          <mxGeometry relative="1" as="geometry" />
        </mxCell>
        <mxCell id="Be2gnzdaN61zOpge0nfu-2" value="pfSense" style="image;html=1;image=img/lib/clip_art/networking/Firewall_02_128x128.png" parent="1" vertex="1">
          <mxGeometry x="130" y="330" width="80" height="80" as="geometry" />
        </mxCell>
        <mxCell id="Be2gnzdaN61zOpge0nfu-10" style="edgeStyle=orthogonalEdgeStyle;rounded=0;orthogonalLoop=1;jettySize=auto;html=1;" parent="1" source="Be2gnzdaN61zOpge0nfu-3" target="Be2gnzdaN61zOpge0nfu-4" edge="1">
          <mxGeometry relative="1" as="geometry" />
        </mxCell>
        <mxCell id="5O99Y-24R9B2gPLI0et_-2" style="edgeStyle=orthogonalEdgeStyle;rounded=0;orthogonalLoop=1;jettySize=auto;html=1;entryX=0.484;entryY=-0.1;entryDx=0;entryDy=0;entryPerimeter=0;" edge="1" parent="1" source="Be2gnzdaN61zOpge0nfu-3" target="5O99Y-24R9B2gPLI0et_-1">
          <mxGeometry relative="1" as="geometry" />
        </mxCell>
        <mxCell id="Be2gnzdaN61zOpge0nfu-3" value="switch" style="image;html=1;image=img/lib/clip_art/networking/Switch_128x128.png" parent="1" vertex="1">
          <mxGeometry x="385" y="260" width="80" height="80" as="geometry" />
        </mxCell>
        <mxCell id="Be2gnzdaN61zOpge0nfu-4" value="zabbix" style="image;html=1;image=img/lib/clip_art/computers/Server_128x128.png" parent="1" vertex="1">
          <mxGeometry x="500" y="50" width="80" height="80" as="geometry" />
        </mxCell>
        <mxCell id="Be2gnzdaN61zOpge0nfu-8" style="edgeStyle=orthogonalEdgeStyle;rounded=0;orthogonalLoop=1;jettySize=auto;html=1;" parent="1" source="Be2gnzdaN61zOpge0nfu-6" target="Be2gnzdaN61zOpge0nfu-2" edge="1">
          <mxGeometry relative="1" as="geometry" />
        </mxCell>
        <mxCell id="Be2gnzdaN61zOpge0nfu-6" value="" style="fontColor=#0066CC;verticalAlign=top;verticalLabelPosition=bottom;labelPosition=center;align=center;html=1;outlineConnect=0;fillColor=#CCCCCC;strokeColor=#6881B3;gradientColor=none;gradientDirection=north;strokeWidth=2;shape=mxgraph.networks.modem;" parent="1" vertex="1">
          <mxGeometry x="120" y="210" width="100" height="30" as="geometry" />
        </mxCell>
        <mxCell id="5O99Y-24R9B2gPLI0et_-1" value="pve" style="sketch=0;aspect=fixed;html=1;points=[];align=center;image;fontSize=12;image=img/lib/mscae/Non_Azure_Machine.svg;" vertex="1" parent="1">
          <mxGeometry x="600" y="490" width="31" height="50" as="geometry" />
        </mxCell>
        <mxCell id="5O99Y-24R9B2gPLI0et_-9" style="edgeStyle=orthogonalEdgeStyle;rounded=0;orthogonalLoop=1;jettySize=auto;html=1;" edge="1" parent="1" source="5O99Y-24R9B2gPLI0et_-3" target="5O99Y-24R9B2gPLI0et_-1">
          <mxGeometry relative="1" as="geometry" />
        </mxCell>
        <mxCell id="5O99Y-24R9B2gPLI0et_-3" value="" style="sketch=0;aspect=fixed;html=1;points=[];align=center;image;fontSize=12;image=img/lib/mscae/VM_Linux.svg;" vertex="1" parent="1">
          <mxGeometry x="720" y="492" width="50" height="46" as="geometry" />
        </mxCell>
        <mxCell id="5O99Y-24R9B2gPLI0et_-10" style="edgeStyle=orthogonalEdgeStyle;rounded=0;orthogonalLoop=1;jettySize=auto;html=1;" edge="1" parent="1" source="5O99Y-24R9B2gPLI0et_-4">
          <mxGeometry relative="1" as="geometry">
            <mxPoint x="620" y="530" as="targetPoint" />
          </mxGeometry>
        </mxCell>
        <mxCell id="5O99Y-24R9B2gPLI0et_-4" value="" style="sketch=0;aspect=fixed;html=1;points=[];align=center;image;fontSize=12;image=img/lib/mscae/VM_Linux_Non_Azure.svg;" vertex="1" parent="1">
          <mxGeometry x="335" y="660" width="50" height="46" as="geometry" />
        </mxCell>
        <mxCell id="5O99Y-24R9B2gPLI0et_-14" style="edgeStyle=orthogonalEdgeStyle;rounded=0;orthogonalLoop=1;jettySize=auto;html=1;" edge="1" parent="1" source="5O99Y-24R9B2gPLI0et_-5">
          <mxGeometry relative="1" as="geometry">
            <mxPoint x="620" y="640" as="targetPoint" />
          </mxGeometry>
        </mxCell>
        <mxCell id="5O99Y-24R9B2gPLI0et_-5" value="" style="sketch=0;aspect=fixed;html=1;points=[];align=center;image;fontSize=12;image=img/lib/mscae/VM_Linux.svg;" vertex="1" parent="1">
          <mxGeometry x="720" y="570" width="50" height="46" as="geometry" />
        </mxCell>
        <mxCell id="5O99Y-24R9B2gPLI0et_-12" style="edgeStyle=orthogonalEdgeStyle;rounded=0;orthogonalLoop=1;jettySize=auto;html=1;" edge="1" parent="1" source="5O99Y-24R9B2gPLI0et_-6">
          <mxGeometry relative="1" as="geometry">
            <mxPoint x="620" y="530" as="targetPoint" />
          </mxGeometry>
        </mxCell>
        <mxCell id="5O99Y-24R9B2gPLI0et_-6" value="" style="sketch=0;aspect=fixed;html=1;points=[];align=center;image;fontSize=12;image=img/lib/mscae/VM_Linux_Non_Azure.svg;" vertex="1" parent="1">
          <mxGeometry x="690" y="660" width="50" height="46" as="geometry" />
        </mxCell>
        <mxCell id="5O99Y-24R9B2gPLI0et_-15" style="edgeStyle=orthogonalEdgeStyle;rounded=0;orthogonalLoop=1;jettySize=auto;html=1;" edge="1" parent="1" source="5O99Y-24R9B2gPLI0et_-7" target="5O99Y-24R9B2gPLI0et_-1">
          <mxGeometry relative="1" as="geometry" />
        </mxCell>
        <mxCell id="5O99Y-24R9B2gPLI0et_-7" value="" style="sketch=0;aspect=fixed;html=1;points=[];align=center;image;fontSize=12;image=img/lib/mscae/VirtualMachineWindows.svg;" vertex="1" parent="1">
          <mxGeometry x="414" y="492" width="50" height="46" as="geometry" />
        </mxCell>
      </root>
    </mxGraphModel>
  </diagram>
</mxfile>
